<?xml version="1.0" encoding="iso-8859-1"?>
<!-- Generator: Adobe Illustrator 19.0.0, SVG Export Plug-In . SVG Version: 6.00 Build 0)  -->
<svg version="1.1" id="Layer_1" xmlns="http://www.w3.org/2000/svg" xmlns:xlink="http://www.w3.org/1999/xlink" x="0px" y="0px"
	 viewBox="0 0 491.52 491.52" style="enable-background:new 0 0 491.52 491.52;" xml:space="preserve">
<path style="fill:#3A556A;" d="M430.164,234.591H61.356c-4.05,0-7.333,3.283-7.333,7.333v242.262c0,4.049,3.283,7.333,7.333,7.333
	h368.809c4.05,0,7.333-3.284,7.333-7.333V241.924C437.498,237.874,434.215,234.591,430.164,234.591z"/>
<path style="fill:#EBF0F3;" d="M245.76,0C163.062,0,95.779,67.28,95.779,149.982v201.171h299.962V149.982
	C395.741,67.28,328.458,0,245.76,0z M369.87,325.282H121.65V149.981c0-68.433,55.672-124.11,124.11-124.11
	s124.11,55.676,124.11,124.11V325.282z"/>
<path style="fill:#E1E6E9;" d="M245.76,25.871c-68.438,0-124.11,55.676-124.11,124.11v175.301H369.87V149.981
	C369.87,81.547,314.198,25.871,245.76,25.871z M359.819,315.231H131.701V149.982c0-62.892,51.168-114.059,114.059-114.059
	S359.819,87.09,359.819,149.982V315.231z"/>
<path style="fill:#64798A;" d="M430.164,217.345H61.356c-4.05,0-7.333,3.283-7.333,7.333v242.262c0,4.049,3.283,7.333,7.333,7.333
	h368.809c4.05,0,7.333-3.284,7.333-7.333V224.678C437.498,220.628,434.215,217.345,430.164,217.345z"/>
<path style="fill:#3A556A;" d="M274.514,321.495c0-15.88-12.874-28.753-28.754-28.753s-28.754,12.873-28.754,28.753
	c0,9.724,4.859,18.285,12.247,23.488l-12.247,53.893h57.508l-12.247-53.893C269.656,339.78,274.514,331.22,274.514,321.495z"/>
<g>
</g>
<g>
</g>
<g>
</g>
<g>
</g>
<g>
</g>
<g>
</g>
<g>
</g>
<g>
</g>
<g>
</g>
<g>
</g>
<g>
</g>
<g>
</g>
<g>
</g>
<g>
</g>
<g>
</g>
</svg>
